<svg xmlns="http://www.w3.org/2000/svg" xmlns:xlink="http://www.w3.org/1999/xlink" width="136.053" height="31" viewBox="0 0 136.053 31">
  <defs>
    <clipPath id="clip-path">
      <rect id="Rectangle_1188" data-name="Rectangle 1188" width="118.553" height="30.295" transform="translate(0 0)" fill="none"/>
    </clipPath>
  </defs>
  <g id="Group_1455" data-name="Group 1455" transform="translate(-110.5 -49)">
    <g id="Group_1375" data-name="Group 1375" transform="translate(128 49)">
      <g id="Group_1242" data-name="Group 1242" clip-path="url(#clip-path)">
        <path id="Path_17687" data-name="Path 17687" d="M102.4,25.1V9.195h2.279V22.824H109.2V25.1Z" fill="#fff"/>
        <path id="Path_17688" data-name="Path 17688" d="M111.761,25.1V9.195h6.792V11.34H114.04v4.67h3.933v2.144H114.04v4.67h4.513V25.1Z" fill="#fff"/>
        <path id="Path_17689" data-name="Path 17689" d="M91.716,15.3V8.692l8.122,5.129L94.62,17.148l5.218,3.327L91.713,25.6V19l-4.272,2.721-.658-1.032c.116-.078.224-.152.334-.222,1.461-.932,2.921-1.866,4.387-2.79a.452.452,0,0,0,.218-.386.765.765,0,0,0-.462-.835c-1.45-.894-2.879-1.821-4.316-2.737-.049-.031-.1-.066-.162-.113l.657-1.032L91.716,15.3m1.223-4.377V11.2c0,1.52.006,3.04-.006,4.56,0,.236.05.4.272.486a.3.3,0,0,1,.093.058c.117.107.218.089.35,0,1.234-.794,2.472-1.58,3.709-2.369.052-.033.1-.072.171-.124l-4.589-2.9m0,12.454,4.6-2.9c-.1-.064-.162-.11-.23-.153q-1.808-1.152-3.617-2.3c-.089-.056-.176-.2-.306-.08-.164.15-.453.154-.45.5.016,1.555.007,3.111.007,4.667Z" fill="#fff"/>
        <path id="Path_17690" data-name="Path 17690" d="M91.716,15.3V8.692l8.122,5.129L94.62,17.148l5.218,3.327L91.713,25.6V19l-4.272,2.721-.658-1.032c.116-.078.224-.152.334-.222,1.461-.932,2.921-1.866,4.387-2.79a.452.452,0,0,0,.218-.386.765.765,0,0,0-.462-.835c-1.45-.894-2.879-1.821-4.316-2.737-.049-.031-.1-.066-.162-.113l.657-1.032Zm1.223-4.377V11.2c0,1.52.006,3.04-.006,4.56,0,.236.05.4.272.486a.3.3,0,0,1,.093.058c.117.107.218.089.35,0,1.234-.794,2.472-1.58,3.709-2.369.052-.033.1-.072.171-.124Zm0,12.454,4.6-2.9c-.1-.064-.162-.11-.23-.153q-1.808-1.152-3.617-2.3c-.089-.056-.176-.2-.306-.08-.164.15-.453.154-.45.5.016,1.555.007,3.111.007,4.667Z" fill="none" stroke="#fff" stroke-width="1.137"/>
      </g>
    </g>
    <g id="Group_1454" data-name="Group 1454" transform="translate(-72.5 -226.719)">
      <text id="EMCUS" transform="translate(208.671 300.719)" fill="#48eb9f" font-size="22" font-family="SegoeUI, Segoe UI"><tspan x="0" y="0">EM</tspan><tspan y="0" fill="#fff">CUS</tspan></text>
      <g id="Group_1451" data-name="Group 1451" transform="translate(183 284.146)">
        <rect id="Rectangle_1211" data-name="Rectangle 1211" width="12.508" height="12.508" fill="#6c037b"/>
        <rect id="Rectangle_1212" data-name="Rectangle 1212" width="11.85" height="11.85" transform="translate(6.583 6.583)" fill="#48eb9f"/>
      </g>
    </g>
  </g>
</svg>
